# xmcd
#
# Track frame offsets:
# 150
# 12492
# 27351
# 42618
# 55410
# 77181
# 94142
# 107377
# 123325
# 138825
#
# Disc length: 2021 seconds
#
#
# Revision: 3
# Processed by: cddbd v1.5.1PL0 Copyright (c) Steve Scherf et al.
# Submitted via: FreeRIP 2.942 
#
DISCID=8107e30a
DTITLE=Ricky Van Shelton - Working The Hits
DYEAR=1996
DGENRE=Country
TTITLE0=Working Man Blues
TTITLE1=He's Got You
TTITLE2=Crazy Over You
TTITLE3=Call Me Up
TTITLE4=Supper Time
TTITLE5=Life's Little Ups And Downs
TTITLE6=Heartache As Big As Texas
TTITLE7=A Bridge I Didn't Burn
TTITLE8=Life Turned Her That Way
TTITLE9=Oh, Pretty Woman
EXTD=YEAR: 1996 ID3G: 2
EXTT0=
EXTT1=
EXTT2=
EXTT3=
EXTT4=
EXTT5=
EXTT6=
EXTT7=
EXTT8=
EXTT9=
PLAYORDER=
